<svg width="53" height="52" viewBox="0 0 53 52" fill="none" xmlns="http://www.w3.org/2000/svg">
<rect width="51.6781" height="51.6781" rx="10.3356" fill="url(#paint0_linear_61_268)"/>
<g filter="url(#filter0_d_61_268)">
<circle cx="24.5292" cy="24.5291" r="14.1395" fill="url(#paint1_linear_61_268)"/>
<g filter="url(#filter1_b_61_268)">
<path fill-rule="evenodd" clip-rule="evenodd" d="M33.7742 40.8438C33.7742 40.8438 33.7742 40.8438 33.7742 40.8438C38.2794 40.8438 41.9316 37.1375 41.9316 32.5655C41.9316 27.9935 38.2794 24.2872 33.7742 24.2872C32.9848 24.2872 32.2216 24.401 31.4996 24.6133C30.1405 21.9601 27.4074 20.148 24.2572 20.148C19.752 20.148 16.0998 23.8543 16.0998 28.4263L16.0999 28.4642C15.8767 28.4392 15.6498 28.4263 15.42 28.4263C12.0411 28.4263 9.302 31.2061 9.302 34.6351C9.302 37.8309 11.6813 40.4628 14.7403 40.8059V40.8439H33.7742V40.8438Z" fill="url(#paint2_linear_61_268)" fill-opacity="0.6"/>
</g>
</g>
<defs>
<filter id="filter0_d_61_268" x="6.20142" y="6.20142" width="50.6686" height="50.6686" filterUnits="userSpaceOnUse" color-interpolation-filters="sRGB">
<feFlood flood-opacity="0" result="BackgroundImageFix"/>
<feColorMatrix in="SourceAlpha" type="matrix" values="0 0 0 0 0 0 0 0 0 0 0 0 0 0 0 0 0 0 127 0" result="hardAlpha"/>
<feOffset dx="5.43825" dy="5.43825"/>
<feGaussianBlur stdDeviation="2.71913"/>
<feColorMatrix type="matrix" values="0 0 0 0 0 0 0 0 0 0 0 0 0 0 0 0 0 0 0.25 0"/>
<feBlend mode="normal" in2="BackgroundImageFix" result="effect1_dropShadow_61_268"/>
<feBlend mode="normal" in="SourceGraphic" in2="effect1_dropShadow_61_268" result="shape"/>
</filter>
<filter id="filter1_b_61_268" x="-1.57451" y="9.2715" width="54.3825" height="42.4489" filterUnits="userSpaceOnUse" color-interpolation-filters="sRGB">
<feFlood flood-opacity="0" result="BackgroundImageFix"/>
<feGaussianBlur in="BackgroundImage" stdDeviation="5.43825"/>
<feComposite in2="SourceAlpha" operator="in" result="effect1_backgroundBlur_61_268"/>
<feBlend mode="normal" in="SourceGraphic" in2="effect1_backgroundBlur_61_268" result="shape"/>
</filter>
<linearGradient id="paint0_linear_61_268" x1="-4.85528" y1="-3.79493" x2="40.9071" y2="51.6781" gradientUnits="userSpaceOnUse">
<stop stop-color="#1AD1DA"/>
<stop offset="1" stop-color="#4A5ACD"/>
</linearGradient>
<linearGradient id="paint1_linear_61_268" x1="10.3898" y1="10.3896" x2="23.5193" y2="23.5191" gradientUnits="userSpaceOnUse">
<stop stop-color="#FAE26F"/>
<stop offset="1" stop-color="#F7BC3D"/>
</linearGradient>
<linearGradient id="paint2_linear_61_268" x1="17.516" y1="32.8415" x2="27.0806" y2="44.6224" gradientUnits="userSpaceOnUse">
<stop stop-color="white"/>
<stop offset="1" stop-color="#BDE0F5"/>
</linearGradient>
</defs>
</svg>
