<svg width="30" height="30" viewBox="0 0 30 30" fill="none" xmlns="http://www.w3.org/2000/svg">
<g clip-path="url(#clip0_4_76)">
<path d="M21.5539 19.237C23.3042 16.8486 24.0881 13.8874 23.7489 10.9458C23.4096 8.00427 21.9722 5.29926 19.7242 3.37199C17.4762 1.44472 14.5833 0.437312 11.6245 0.551323C8.6656 0.665333 5.85887 1.89235 3.76583 3.98689C1.67279 6.08144 0.447777 8.88903 0.335883 11.848C0.22399 14.8069 1.23346 17.699 3.16235 19.9457C5.09123 22.1923 7.79727 23.6278 10.7391 23.9649C13.6809 24.3021 16.6415 23.516 19.0287 21.764H19.0269C19.0811 21.8363 19.1389 21.905 19.204 21.9719L26.1633 28.9311C26.5022 29.2703 26.962 29.461 27.4415 29.4611C27.921 29.4613 28.3809 29.271 28.7201 28.9321C29.0593 28.5931 29.2499 28.1333 29.2501 27.6538C29.2503 27.1743 29.0599 26.7144 28.721 26.3752L21.7618 19.416C21.6971 19.3505 21.6276 19.2901 21.5539 19.2352V19.237ZM22.0202 12.2886C22.0202 13.5942 21.7631 14.887 21.2635 16.0932C20.7639 17.2994 20.0315 18.3953 19.1084 19.3185C18.1852 20.2417 17.0892 20.974 15.883 21.4736C14.6768 21.9732 13.384 22.2304 12.0785 22.2304C10.7729 22.2304 9.48011 21.9732 8.27392 21.4736C7.06773 20.974 5.97176 20.2417 5.04858 19.3185C4.1254 18.3953 3.3931 17.2994 2.89347 16.0932C2.39385 14.887 2.1367 13.5942 2.1367 12.2886C2.1367 9.6519 3.18414 7.12317 5.04858 5.25873C6.91302 3.39428 9.44175 2.34685 12.0785 2.34685C14.7152 2.34685 17.2439 3.39428 19.1084 5.25873C20.9728 7.12317 22.0202 9.6519 22.0202 12.2886Z" fill="#FEFEFE"/>
</g>
<defs>
<clipPath id="clip0_4_76">
<rect width="28.9215" height="28.9215" fill="white" transform="translate(0.329102 0.539246)"/>
</clipPath>
</defs>
</svg>
